<mxfile host="app.diagrams.net" agent="Mozilla/5.0 (X11; Linux x86_64) AppleWebKit/537.36 (KHTML, like Gecko) Chrome/130.0.0.0 Safari/537.36" version="24.8.3">
  <diagram name="Page-1" id="rhogTkYvSxt1cELIR85i">
    <mxGraphModel dx="2074" dy="3532" grid="0" gridSize="1" guides="0" tooltips="1" connect="1" arrows="1" fold="1" page="0" pageScale="1" pageWidth="850" pageHeight="1100" math="0" shadow="0">
      <root>
        <mxCell id="0" />
        <mxCell id="1" parent="0" />
        <mxCell id="RtweAaiOnxBnnprJ89-i-14" value="db&lt;span style=&quot;background-color: initial;&quot;&gt;.rs&lt;/span&gt;" style="swimlane;whiteSpace=wrap;html=1;fillColor=#dae8fc;strokeColor=#6c8ebf;startSize=30;align=center;verticalAlign=top;" parent="1" vertex="1">
          <mxGeometry x="67" y="-1736" width="404" height="450" as="geometry">
            <mxRectangle x="287.5" y="100" width="70" height="30" as="alternateBounds" />
          </mxGeometry>
        </mxCell>
        <mxCell id="RtweAaiOnxBnnprJ89-i-12" value="&lt;div&gt;&lt;span style=&quot;background-color: initial;&quot;&gt;STRUCT: JIRA_DB&lt;/span&gt;&lt;/div&gt;&lt;div&gt;&lt;div&gt;database: Box&amp;lt;dyn Database&amp;gt;&lt;/div&gt;&lt;div&gt;&lt;span style=&quot;font-weight: 700;&quot;&gt;&lt;br&gt;&lt;/span&gt;&lt;/div&gt;&lt;div&gt;&lt;span style=&quot;font-weight: 700;&quot;&gt;&lt;br&gt;&lt;/span&gt;&lt;/div&gt;&lt;div&gt;&lt;span style=&quot;font-weight: 700;&quot;&gt;&lt;br&gt;&lt;/span&gt;&lt;/div&gt;&lt;div&gt;&lt;span style=&quot;font-weight: 700;&quot;&gt;&lt;br&gt;&lt;/span&gt;&lt;/div&gt;&lt;div&gt;&lt;span style=&quot;font-weight: 700;&quot;&gt;&lt;br&gt;&lt;/span&gt;&lt;/div&gt;&lt;div&gt;&lt;span style=&quot;font-weight: 700;&quot;&gt;&lt;br&gt;&lt;/span&gt;&lt;/div&gt;&lt;div&gt;&lt;span style=&quot;font-weight: 700;&quot;&gt;&lt;br&gt;&lt;/span&gt;&lt;/div&gt;&lt;div&gt;&lt;span style=&quot;font-weight: 700;&quot;&gt;&lt;br&gt;&lt;/span&gt;&lt;/div&gt;&lt;div&gt;&lt;span style=&quot;font-weight: 700;&quot;&gt;&lt;br&gt;&lt;/span&gt;&lt;/div&gt;&lt;div&gt;&lt;span style=&quot;font-weight: 700;&quot;&gt;&lt;br&gt;&lt;/span&gt;&lt;/div&gt;&lt;div&gt;&lt;span style=&quot;font-weight: 700;&quot;&gt;&lt;br&gt;&lt;/span&gt;&lt;/div&gt;&lt;div&gt;&lt;span style=&quot;font-weight: 700;&quot;&gt;&lt;br&gt;&lt;/span&gt;&lt;/div&gt;&lt;div&gt;&lt;span style=&quot;font-weight: 700;&quot;&gt;&lt;br&gt;&lt;/span&gt;&lt;/div&gt;&lt;div&gt;&lt;span style=&quot;font-weight: 700;&quot;&gt;IMPL&lt;/span&gt;&lt;/div&gt;&lt;/div&gt;" style="swimlane;whiteSpace=wrap;html=1;startSize=250;fillColor=#ffe6cc;strokeColor=#d79b00;fontStyle=0" parent="RtweAaiOnxBnnprJ89-i-14" vertex="1">
          <mxGeometry x="15" y="47" width="366" height="390" as="geometry">
            <mxRectangle x="22.5" y="50" width="210" height="90" as="alternateBounds" />
          </mxGeometry>
        </mxCell>
        <mxCell id="RtweAaiOnxBnnprJ89-i-10" value="&lt;div&gt;&lt;span style=&quot;background-color: initial;&quot;&gt;STRUCT: JSON_DB&lt;/span&gt;&lt;/div&gt;&lt;div&gt;&lt;div&gt;file_path: String&lt;/div&gt;&lt;div&gt;&lt;br&gt;&lt;/div&gt;&lt;div&gt;IMPL&lt;/div&gt;&lt;div&gt;&lt;br style=&quot;&quot;&gt;&lt;/div&gt;&lt;/div&gt;" style="swimlane;whiteSpace=wrap;html=1;startSize=75;fillColor=#d5e8d4;strokeColor=#82b366;fontStyle=0" parent="RtweAaiOnxBnnprJ89-i-12" vertex="1">
          <mxGeometry x="73" y="66" width="243" height="155" as="geometry">
            <mxRectangle x="38.75" y="60" width="150" height="90" as="alternateBounds" />
          </mxGeometry>
        </mxCell>
        <mxCell id="RtweAaiOnxBnnprJ89-i-11" value="&lt;div style=&quot;forced-color-adjust: none; font-family: Helvetica; font-size: 12px; font-style: normal; font-variant-ligatures: normal; font-variant-caps: normal; font-weight: 400; letter-spacing: normal; orphans: 2; text-align: center; text-indent: 0px; text-transform: none; widows: 2; word-spacing: 0px; -webkit-text-stroke-width: 0px; white-space: normal; text-decoration-thickness: initial; text-decoration-style: initial; text-decoration-color: initial;&quot;&gt;TRAIT: Database;&lt;/div&gt;&lt;div style=&quot;forced-color-adjust: none; font-family: Helvetica; font-size: 12px; font-style: normal; font-variant-ligatures: normal; font-variant-caps: normal; font-weight: 400; letter-spacing: normal; orphans: 2; text-align: center; text-indent: 0px; text-transform: none; widows: 2; word-spacing: 0px; -webkit-text-stroke-width: 0px; white-space: normal; text-decoration-thickness: initial; text-decoration-style: initial; text-decoration-color: initial;&quot;&gt;&lt;span style=&quot;forced-color-adjust: none;&quot;&gt;read_db () -&amp;gt;&amp;nbsp;&lt;/span&gt;&lt;span style=&quot;background-color: initial;&quot;&gt;Result&amp;lt;&lt;/span&gt;&lt;span style=&quot;background-color: initial;&quot;&gt;DBState&amp;gt;&lt;/span&gt;&lt;/div&gt;&lt;div style=&quot;forced-color-adjust: none; font-family: Helvetica; font-size: 12px; font-style: normal; font-variant-ligatures: normal; font-variant-caps: normal; font-weight: 400; letter-spacing: normal; orphans: 2; text-align: center; text-indent: 0px; text-transform: none; widows: 2; word-spacing: 0px; -webkit-text-stroke-width: 0px; white-space: normal; text-decoration-thickness: initial; text-decoration-style: initial; text-decoration-color: initial;&quot;&gt;&lt;span style=&quot;forced-color-adjust: none;&quot;&gt;write_db ()&amp;nbsp;&lt;/span&gt;&lt;span style=&quot;background-color: initial;&quot;&gt;-&amp;gt; Result&amp;lt;()&amp;gt;&lt;/span&gt;&lt;/div&gt;" style="shape=process;whiteSpace=wrap;html=1;backgroundOutline=1;fillColor=default;strokeColor=#b85450;fontColor=default;labelBackgroundColor=none;labelBorderColor=none;" parent="RtweAaiOnxBnnprJ89-i-10" vertex="1">
          <mxGeometry x="8" y="87" width="235" height="60" as="geometry" />
        </mxCell>
        <mxCell id="RtweAaiOnxBnnprJ89-i-20" value="&lt;div style=&quot;forced-color-adjust: none; color: rgb(0, 0, 0); font-family: Helvetica; font-size: 12px; font-style: normal; font-variant-ligatures: normal; font-variant-caps: normal; font-weight: 400; letter-spacing: normal; orphans: 2; text-align: center; text-indent: 0px; text-transform: none; widows: 2; word-spacing: 0px; -webkit-text-stroke-width: 0px; white-space: normal; background-color: rgb(251, 251, 251); text-decoration-thickness: initial; text-decoration-style: initial; text-decoration-color: initial;&quot;&gt;&lt;span style=&quot;background-color: initial;&quot;&gt;new&amp;nbsp;&lt;/span&gt;&lt;span style=&quot;background-color: initial;&quot;&gt;()&lt;/span&gt;&lt;/div&gt;&lt;div style=&quot;forced-color-adjust: none; color: rgb(0, 0, 0); font-family: Helvetica; font-size: 12px; font-style: normal; font-variant-ligatures: normal; font-variant-caps: normal; font-weight: 400; letter-spacing: normal; orphans: 2; text-align: center; text-indent: 0px; text-transform: none; widows: 2; word-spacing: 0px; -webkit-text-stroke-width: 0px; white-space: normal; background-color: rgb(251, 251, 251); text-decoration-thickness: initial; text-decoration-style: initial; text-decoration-color: initial;&quot;&gt;&lt;span style=&quot;forced-color-adjust: none; background-color: initial;&quot;&gt;read_db&amp;nbsp;&lt;/span&gt;&lt;span style=&quot;background-color: initial;&quot;&gt;()&lt;/span&gt;&lt;/div&gt;&lt;div style=&quot;forced-color-adjust: none; color: rgb(0, 0, 0); font-family: Helvetica; font-size: 12px; font-style: normal; font-variant-ligatures: normal; font-variant-caps: normal; font-weight: 400; letter-spacing: normal; orphans: 2; text-align: center; text-indent: 0px; text-transform: none; widows: 2; word-spacing: 0px; -webkit-text-stroke-width: 0px; white-space: normal; background-color: rgb(251, 251, 251); text-decoration-thickness: initial; text-decoration-style: initial; text-decoration-color: initial;&quot;&gt;&lt;span style=&quot;forced-color-adjust: none; background-color: initial;&quot;&gt;create_epic&amp;nbsp;&lt;/span&gt;&lt;span style=&quot;background-color: initial;&quot;&gt;() // update and save to disk&lt;/span&gt;&lt;/div&gt;&lt;div style=&quot;forced-color-adjust: none; color: rgb(0, 0, 0); font-family: Helvetica; font-size: 12px; font-style: normal; font-variant-ligatures: normal; font-variant-caps: normal; font-weight: 400; letter-spacing: normal; orphans: 2; text-align: center; text-indent: 0px; text-transform: none; widows: 2; word-spacing: 0px; -webkit-text-stroke-width: 0px; white-space: normal; background-color: rgb(251, 251, 251); text-decoration-thickness: initial; text-decoration-style: initial; text-decoration-color: initial;&quot;&gt;&lt;span style=&quot;forced-color-adjust: none; background-color: initial;&quot;&gt;delete_epic&amp;nbsp;&lt;/span&gt;&lt;span style=&quot;background-color: initial;&quot;&gt;() //&amp;nbsp;&lt;/span&gt;&lt;span style=&quot;background-color: initial;&quot;&gt;update and save to disk&lt;/span&gt;&lt;/div&gt;&lt;div style=&quot;forced-color-adjust: none; color: rgb(0, 0, 0); font-family: Helvetica; font-size: 12px; font-style: normal; font-variant-ligatures: normal; font-variant-caps: normal; font-weight: 400; letter-spacing: normal; orphans: 2; text-align: center; text-indent: 0px; text-transform: none; widows: 2; word-spacing: 0px; -webkit-text-stroke-width: 0px; white-space: normal; background-color: rgb(251, 251, 251); text-decoration-thickness: initial; text-decoration-style: initial; text-decoration-color: initial;&quot;&gt;&lt;span style=&quot;forced-color-adjust: none; background-color: initial;&quot;&gt;delete_story&amp;nbsp;&lt;/span&gt;&lt;span style=&quot;background-color: initial;&quot;&gt;() //&amp;nbsp;&lt;/span&gt;&lt;span style=&quot;background-color: initial;&quot;&gt;update and save to disk&lt;/span&gt;&lt;/div&gt;&lt;div style=&quot;forced-color-adjust: none; color: rgb(0, 0, 0); font-family: Helvetica; font-size: 12px; font-style: normal; font-variant-ligatures: normal; font-variant-caps: normal; font-weight: 400; letter-spacing: normal; orphans: 2; text-align: center; text-indent: 0px; text-transform: none; widows: 2; word-spacing: 0px; -webkit-text-stroke-width: 0px; white-space: normal; background-color: rgb(251, 251, 251); text-decoration-thickness: initial; text-decoration-style: initial; text-decoration-color: initial;&quot;&gt;&lt;span style=&quot;forced-color-adjust: none; background-color: initial;&quot;&gt;update_epic_status&amp;nbsp;&lt;/span&gt;&lt;span style=&quot;background-color: initial;&quot;&gt;() //&amp;nbsp;&lt;/span&gt;&lt;span style=&quot;background-color: initial;&quot;&gt;update and save to disk&lt;/span&gt;&lt;/div&gt;&lt;div style=&quot;forced-color-adjust: none; color: rgb(0, 0, 0); font-family: Helvetica; font-size: 12px; font-style: normal; font-variant-ligatures: normal; font-variant-caps: normal; font-weight: 400; letter-spacing: normal; orphans: 2; text-align: center; text-indent: 0px; text-transform: none; widows: 2; word-spacing: 0px; -webkit-text-stroke-width: 0px; white-space: normal; background-color: rgb(251, 251, 251); text-decoration-thickness: initial; text-decoration-style: initial; text-decoration-color: initial;&quot;&gt;&lt;span style=&quot;forced-color-adjust: none; background-color: initial;&quot;&gt;update_story_status&amp;nbsp;&lt;/span&gt;&lt;span style=&quot;background-color: initial;&quot;&gt;()&amp;nbsp;&lt;/span&gt;&lt;span style=&quot;background-color: initial;&quot;&gt;//&amp;nbsp;&lt;/span&gt;&lt;span style=&quot;background-color: initial;&quot;&gt;update and save to disk&lt;/span&gt;&lt;/div&gt;" style="shape=process;whiteSpace=wrap;html=1;backgroundOutline=1;fillColor=none;strokeColor=#b85450;" parent="RtweAaiOnxBnnprJ89-i-12" vertex="1">
          <mxGeometry x="10" y="267" width="333" height="110" as="geometry" />
        </mxCell>
        <mxCell id="RtweAaiOnxBnnprJ89-i-24" value="" style="shape=flexArrow;endArrow=classic;html=1;rounded=0;endWidth=14.166666666666668;endSize=4.891666666666667;" parent="RtweAaiOnxBnnprJ89-i-12" edge="1">
          <mxGeometry width="50" height="50" relative="1" as="geometry">
            <mxPoint x="273.75" y="30" as="sourcePoint" />
            <mxPoint x="273.75" y="60" as="targetPoint" />
          </mxGeometry>
        </mxCell>
        <mxCell id="RtweAaiOnxBnnprJ89-i-41" value="&lt;span style=&quot;background-color: initial;&quot;&gt;navigator.rs&lt;/span&gt;" style="swimlane;whiteSpace=wrap;html=1;fillColor=#dae8fc;strokeColor=#6c8ebf;startSize=30;align=center;verticalAlign=top;" parent="1" vertex="1">
          <mxGeometry x="53" y="-2158" width="299" height="355" as="geometry">
            <mxRectangle x="287.5" y="100" width="70" height="30" as="alternateBounds" />
          </mxGeometry>
        </mxCell>
        <mxCell id="RtweAaiOnxBnnprJ89-i-42" value="STRUCT: Navigator&lt;div&gt;pages: Vec&amp;lt;Box&amp;lt;dyn Page&amp;gt;&amp;gt;&lt;/div&gt;&lt;div&gt;promps: Prompts&lt;/div&gt;&lt;div style=&quot;&quot;&gt;&lt;span style=&quot;font-size: 13px;&quot;&gt;db: &lt;/span&gt;&lt;font style=&quot;font-size: 16px;&quot;&gt;Rc&lt;/font&gt;&lt;span style=&quot;font-size: 13px;&quot;&gt;&amp;lt;JIRA_DB&amp;gt;&lt;/span&gt;&lt;/div&gt;&lt;div&gt;&lt;br&gt;&lt;/div&gt;&lt;div&gt;IMPL&lt;/div&gt;" style="swimlane;whiteSpace=wrap;html=1;startSize=100;" parent="RtweAaiOnxBnnprJ89-i-41" vertex="1">
          <mxGeometry x="10" y="40" width="260" height="297" as="geometry" />
        </mxCell>
        <mxCell id="HwWQXn4arIi9w6ebfs8w-24" value="" style="ellipse;whiteSpace=wrap;html=1;fillColor=#dae8fc;strokeColor=#6c8ebf;" parent="RtweAaiOnxBnnprJ89-i-42" vertex="1">
          <mxGeometry x="219" y="16" width="14" height="16" as="geometry" />
        </mxCell>
        <mxCell id="HwWQXn4arIi9w6ebfs8w-25" value="" style="ellipse;whiteSpace=wrap;html=1;fillColor=#dae8fc;strokeColor=#6c8ebf;" parent="RtweAaiOnxBnnprJ89-i-42" vertex="1">
          <mxGeometry x="48" y="51" width="16" height="15" as="geometry" />
        </mxCell>
        <mxCell id="HwWQXn4arIi9w6ebfs8w-29" value="" style="ellipse;whiteSpace=wrap;html=1;fillColor=#dae8fc;strokeColor=#6c8ebf;" parent="RtweAaiOnxBnnprJ89-i-42" vertex="1">
          <mxGeometry x="184" y="33" width="16" height="15" as="geometry" />
        </mxCell>
        <mxCell id="HwWQXn4arIi9w6ebfs8w-32" value="&lt;div style=&quot;forced-color-adjust: none; color: rgb(0, 0, 0); font-family: Helvetica; font-size: 12px; font-style: normal; font-variant-ligatures: normal; font-variant-caps: normal; font-weight: 400; letter-spacing: normal; orphans: 2; text-align: center; text-indent: 0px; text-transform: none; widows: 2; word-spacing: 0px; -webkit-text-stroke-width: 0px; white-space: normal; background-color: rgb(251, 251, 251); text-decoration-thickness: initial; text-decoration-style: initial; text-decoration-color: initial;&quot;&gt;&lt;span style=&quot;background-color: initial;&quot;&gt;new&amp;nbsp;&lt;/span&gt;&lt;span style=&quot;background-color: initial;&quot;&gt;() //&amp;nbsp;&lt;/span&gt;&lt;span style=&quot;background-color: initial;&quot;&gt;with HomePage&lt;/span&gt;&lt;/div&gt;&lt;div style=&quot;forced-color-adjust: none; color: rgb(0, 0, 0); font-family: Helvetica; font-size: 12px; font-style: normal; font-variant-ligatures: normal; font-variant-caps: normal; font-weight: 400; letter-spacing: normal; orphans: 2; text-align: center; text-indent: 0px; text-transform: none; widows: 2; word-spacing: 0px; -webkit-text-stroke-width: 0px; white-space: normal; background-color: rgb(251, 251, 251); text-decoration-thickness: initial; text-decoration-style: initial; text-decoration-color: initial;&quot;&gt;&lt;span style=&quot;forced-color-adjust: none; background-color: initial;&quot;&gt;get_current_page&amp;nbsp;&lt;/span&gt;&lt;span style=&quot;background-color: initial;&quot;&gt;()&lt;/span&gt;&lt;/div&gt;&lt;div style=&quot;forced-color-adjust: none; color: rgb(0, 0, 0); font-family: Helvetica; font-size: 12px; font-style: normal; font-variant-ligatures: normal; font-variant-caps: normal; font-weight: 400; letter-spacing: normal; orphans: 2; text-align: center; text-indent: 0px; text-transform: none; widows: 2; word-spacing: 0px; -webkit-text-stroke-width: 0px; white-space: normal; background-color: rgb(251, 251, 251); text-decoration-thickness: initial; text-decoration-style: initial; text-decoration-color: initial;&quot;&gt;&lt;span style=&quot;forced-color-adjust: none; background-color: initial;&quot;&gt;handle_action&amp;nbsp;&lt;/span&gt;&lt;span style=&quot;background-color: initial;&quot;&gt;()&lt;/span&gt;&lt;/div&gt;" style="shape=process;whiteSpace=wrap;html=1;backgroundOutline=1;fillColor=none;strokeColor=#b85450;" parent="RtweAaiOnxBnnprJ89-i-42" vertex="1">
          <mxGeometry x="28" y="121" width="224" height="110" as="geometry" />
        </mxCell>
        <mxCell id="RtweAaiOnxBnnprJ89-i-54" value="IU" style="swimlane;whiteSpace=wrap;html=1;" parent="1" vertex="1">
          <mxGeometry x="501" y="-1727" width="720" height="660" as="geometry" />
        </mxCell>
        <mxCell id="RtweAaiOnxBnnprJ89-i-25" value="&lt;span style=&quot;background-color: initial;&quot;&gt;pages.rs&lt;/span&gt;" style="swimlane;whiteSpace=wrap;html=1;fillColor=#dae8fc;strokeColor=#6c8ebf;startSize=30;align=center;verticalAlign=top;" parent="RtweAaiOnxBnnprJ89-i-54" vertex="1">
          <mxGeometry x="52" y="42" width="200" height="590" as="geometry">
            <mxRectangle x="287.5" y="100" width="70" height="30" as="alternateBounds" />
          </mxGeometry>
        </mxCell>
        <mxCell id="RtweAaiOnxBnnprJ89-i-31" value="STRUCT: HomePage&lt;div style=&quot;&quot;&gt;&lt;span style=&quot;font-size: 13px;&quot;&gt;db: &lt;/span&gt;&lt;font style=&quot;font-size: 16px;&quot;&gt;Rc&lt;/font&gt;&lt;span style=&quot;font-size: 13px;&quot;&gt;&amp;lt;JIRA_DB&amp;gt;&lt;/span&gt;&lt;/div&gt;&lt;div&gt;&lt;br&gt;&lt;/div&gt;&lt;div&gt;IMPL&lt;/div&gt;" style="swimlane;whiteSpace=wrap;html=1;startSize=70;fillColor=#f8cecc;strokeColor=#b85450;" parent="RtweAaiOnxBnnprJ89-i-25" vertex="1">
          <mxGeometry x="10" y="40" width="170" height="150" as="geometry" />
        </mxCell>
        <mxCell id="RtweAaiOnxBnnprJ89-i-32" value="&lt;div style=&quot;forced-color-adjust: none; font-family: Helvetica; font-size: 12px; font-style: normal; font-variant-ligatures: normal; font-variant-caps: normal; font-weight: 400; letter-spacing: normal; orphans: 2; text-align: center; text-indent: 0px; text-transform: none; widows: 2; word-spacing: 0px; -webkit-text-stroke-width: 0px; white-space: normal; text-decoration-thickness: initial; text-decoration-style: initial; text-decoration-color: initial;&quot;&gt;TRAIT: Page;&lt;/div&gt;&lt;div style=&quot;forced-color-adjust: none; font-family: Helvetica; font-size: 12px; font-style: normal; font-variant-ligatures: normal; font-variant-caps: normal; font-weight: 400; letter-spacing: normal; orphans: 2; text-align: center; text-indent: 0px; text-transform: none; widows: 2; word-spacing: 0px; -webkit-text-stroke-width: 0px; white-space: normal; text-decoration-thickness: initial; text-decoration-style: initial; text-decoration-color: initial;&quot;&gt;&lt;span style=&quot;forced-color-adjust: none;&quot;&gt;draw_page ()&lt;/span&gt;&lt;/div&gt;&lt;div style=&quot;forced-color-adjust: none; font-family: Helvetica; font-size: 12px; font-style: normal; font-variant-ligatures: normal; font-variant-caps: normal; font-weight: 400; letter-spacing: normal; orphans: 2; text-align: center; text-indent: 0px; text-transform: none; widows: 2; word-spacing: 0px; -webkit-text-stroke-width: 0px; white-space: normal; text-decoration-thickness: initial; text-decoration-style: initial; text-decoration-color: initial;&quot;&gt;&lt;span style=&quot;forced-color-adjust: none;&quot;&gt;&lt;span style=&quot;background-color: initial;&quot;&gt;handle_input&lt;/span&gt;&amp;nbsp;()&lt;/span&gt;&lt;/div&gt;" style="shape=process;whiteSpace=wrap;html=1;backgroundOutline=1;fillColor=none;strokeColor=#b85450;fontColor=default;labelBackgroundColor=none;labelBorderColor=none;" parent="RtweAaiOnxBnnprJ89-i-31" vertex="1">
          <mxGeometry x="10" y="80" width="150" height="60" as="geometry" />
        </mxCell>
        <mxCell id="RtweAaiOnxBnnprJ89-i-34" value="STRUCT: EpicDetail&lt;div style=&quot;&quot;&gt;&lt;span style=&quot;font-size: 13px;&quot;&gt;db: &lt;/span&gt;&lt;font style=&quot;font-size: 16px;&quot;&gt;Rc&lt;/font&gt;&lt;span style=&quot;font-size: 13px;&quot;&gt;&amp;lt;JIRA_DB&amp;gt;&lt;/span&gt;&lt;/div&gt;&lt;div&gt;epic_id: u32&lt;/div&gt;&lt;div&gt;&lt;br&gt;&lt;/div&gt;&lt;div&gt;IMPL&lt;/div&gt;" style="swimlane;whiteSpace=wrap;html=1;startSize=88;fillColor=#dae8fc;strokeColor=#6c8ebf;" parent="RtweAaiOnxBnnprJ89-i-25" vertex="1">
          <mxGeometry x="11" y="205" width="170" height="165" as="geometry" />
        </mxCell>
        <mxCell id="RtweAaiOnxBnnprJ89-i-35" value="&lt;div style=&quot;forced-color-adjust: none; font-family: Helvetica; font-size: 12px; font-style: normal; font-variant-ligatures: normal; font-variant-caps: normal; font-weight: 400; letter-spacing: normal; orphans: 2; text-align: center; text-indent: 0px; text-transform: none; widows: 2; word-spacing: 0px; -webkit-text-stroke-width: 0px; white-space: normal; text-decoration-thickness: initial; text-decoration-style: initial; text-decoration-color: initial;&quot;&gt;TRAIT: Page;&lt;/div&gt;&lt;div style=&quot;forced-color-adjust: none; font-family: Helvetica; font-size: 12px; font-style: normal; font-variant-ligatures: normal; font-variant-caps: normal; font-weight: 400; letter-spacing: normal; orphans: 2; text-align: center; text-indent: 0px; text-transform: none; widows: 2; word-spacing: 0px; -webkit-text-stroke-width: 0px; white-space: normal; text-decoration-thickness: initial; text-decoration-style: initial; text-decoration-color: initial;&quot;&gt;&lt;span style=&quot;forced-color-adjust: none;&quot;&gt;draw_page ()&lt;/span&gt;&lt;/div&gt;&lt;div style=&quot;forced-color-adjust: none; font-family: Helvetica; font-size: 12px; font-style: normal; font-variant-ligatures: normal; font-variant-caps: normal; font-weight: 400; letter-spacing: normal; orphans: 2; text-align: center; text-indent: 0px; text-transform: none; widows: 2; word-spacing: 0px; -webkit-text-stroke-width: 0px; white-space: normal; text-decoration-thickness: initial; text-decoration-style: initial; text-decoration-color: initial;&quot;&gt;&lt;span style=&quot;forced-color-adjust: none;&quot;&gt;&lt;span style=&quot;background-color: initial;&quot;&gt;handle_input&lt;/span&gt;&amp;nbsp;()&lt;/span&gt;&lt;/div&gt;" style="shape=process;whiteSpace=wrap;html=1;backgroundOutline=1;fillColor=none;strokeColor=#b85450;fontColor=default;labelBackgroundColor=none;labelBorderColor=none;" parent="RtweAaiOnxBnnprJ89-i-34" vertex="1">
          <mxGeometry x="10" y="96" width="150" height="53" as="geometry" />
        </mxCell>
        <mxCell id="RtweAaiOnxBnnprJ89-i-36" value="STRUCT: StoryDetail&lt;div style=&quot;&quot;&gt;&lt;span style=&quot;font-size: 13px;&quot;&gt;db: &lt;/span&gt;&lt;font style=&quot;font-size: 16px;&quot;&gt;Rc&lt;/font&gt;&lt;span style=&quot;font-size: 13px;&quot;&gt;&amp;lt;JIRA_DB&amp;gt;&lt;/span&gt;&lt;/div&gt;&lt;div&gt;epic_id: u32&lt;/div&gt;&lt;div&gt;story_id: u32&lt;/div&gt;&lt;div&gt;&lt;br&gt;&lt;/div&gt;&lt;div&gt;IMPL&lt;/div&gt;" style="swimlane;whiteSpace=wrap;html=1;startSize=100;fillColor=#d5e8d4;strokeColor=#82b366;" parent="RtweAaiOnxBnnprJ89-i-25" vertex="1">
          <mxGeometry x="10" y="382" width="170" height="200" as="geometry" />
        </mxCell>
        <mxCell id="RtweAaiOnxBnnprJ89-i-37" value="&lt;div style=&quot;forced-color-adjust: none; font-family: Helvetica; font-size: 12px; font-style: normal; font-variant-ligatures: normal; font-variant-caps: normal; font-weight: 400; letter-spacing: normal; orphans: 2; text-align: center; text-indent: 0px; text-transform: none; widows: 2; word-spacing: 0px; -webkit-text-stroke-width: 0px; white-space: normal; text-decoration-thickness: initial; text-decoration-style: initial; text-decoration-color: initial;&quot;&gt;TRAIT: Page;&lt;/div&gt;&lt;div style=&quot;forced-color-adjust: none; font-family: Helvetica; font-size: 12px; font-style: normal; font-variant-ligatures: normal; font-variant-caps: normal; font-weight: 400; letter-spacing: normal; orphans: 2; text-align: center; text-indent: 0px; text-transform: none; widows: 2; word-spacing: 0px; -webkit-text-stroke-width: 0px; white-space: normal; text-decoration-thickness: initial; text-decoration-style: initial; text-decoration-color: initial;&quot;&gt;&lt;span style=&quot;forced-color-adjust: none;&quot;&gt;draw_page ()&lt;/span&gt;&lt;/div&gt;&lt;div style=&quot;forced-color-adjust: none; font-family: Helvetica; font-size: 12px; font-style: normal; font-variant-ligatures: normal; font-variant-caps: normal; font-weight: 400; letter-spacing: normal; orphans: 2; text-align: center; text-indent: 0px; text-transform: none; widows: 2; word-spacing: 0px; -webkit-text-stroke-width: 0px; white-space: normal; text-decoration-thickness: initial; text-decoration-style: initial; text-decoration-color: initial;&quot;&gt;&lt;span style=&quot;forced-color-adjust: none;&quot;&gt;&lt;span style=&quot;background-color: initial;&quot;&gt;handle_input&lt;/span&gt;&amp;nbsp;()&lt;/span&gt;&lt;/div&gt;" style="shape=process;whiteSpace=wrap;html=1;backgroundOutline=1;fillColor=none;strokeColor=#b85450;fontColor=default;labelBackgroundColor=none;labelBorderColor=none;" parent="RtweAaiOnxBnnprJ89-i-36" vertex="1">
          <mxGeometry x="10" y="120" width="150" height="60" as="geometry" />
        </mxCell>
        <mxCell id="RtweAaiOnxBnnprJ89-i-48" value="&lt;span style=&quot;background-color: initial;&quot;&gt;prompts.rs&lt;/span&gt;" style="swimlane;whiteSpace=wrap;html=1;fillColor=#dae8fc;strokeColor=#6c8ebf;startSize=30;align=center;verticalAlign=top;" parent="RtweAaiOnxBnnprJ89-i-54" vertex="1">
          <mxGeometry x="313" y="42" width="310" height="590" as="geometry">
            <mxRectangle x="287.5" y="100" width="70" height="30" as="alternateBounds" />
          </mxGeometry>
        </mxCell>
        <mxCell id="RtweAaiOnxBnnprJ89-i-52" value="STRUCT: Promtps&lt;div&gt;create_epic: Box&amp;lt;Fn()-&amp;gt;Epic&amp;gt;&lt;/div&gt;&lt;div&gt;create_story: Box&amp;lt;Fn()&lt;span style=&quot;background-color: initial;&quot;&gt;-&amp;gt;Story&lt;/span&gt;&lt;span style=&quot;background-color: initial;&quot;&gt;&amp;gt;&lt;/span&gt;&lt;/div&gt;&lt;div&gt;delete_epic: Box&amp;lt;Fn()&lt;span style=&quot;background-color: initial;&quot;&gt;-&amp;gt;bool&lt;/span&gt;&lt;span style=&quot;background-color: initial;&quot;&gt;&amp;gt;&lt;/span&gt;&lt;/div&gt;&lt;div&gt;delete_story: Box&amp;lt;Fn()&lt;span style=&quot;background-color: initial;&quot;&gt;-&amp;gt;bool&lt;/span&gt;&lt;span style=&quot;background-color: initial;&quot;&gt;&amp;gt;&lt;/span&gt;&lt;/div&gt;&lt;div&gt;update_status: Box&amp;lt;Fn()&lt;span style=&quot;background-color: initial;&quot;&gt;-&amp;gt;Option&amp;lt;Status&amp;gt;&lt;/span&gt;&lt;span style=&quot;background-color: initial;&quot;&gt;&amp;gt;&lt;/span&gt;&lt;/div&gt;&lt;div&gt;&lt;br&gt;&lt;/div&gt;&lt;div&gt;IMPL&lt;/div&gt;" style="swimlane;whiteSpace=wrap;html=1;startSize=120;" parent="RtweAaiOnxBnnprJ89-i-48" vertex="1">
          <mxGeometry x="12.5" y="50" width="285" height="190" as="geometry" />
        </mxCell>
        <mxCell id="RtweAaiOnxBnnprJ89-i-55" value="&lt;div style=&quot;forced-color-adjust: none; color: rgb(0, 0, 0); font-family: Helvetica; font-size: 12px; font-style: normal; font-variant-ligatures: normal; font-variant-caps: normal; font-weight: 400; letter-spacing: normal; orphans: 2; text-align: center; text-indent: 0px; text-transform: none; widows: 2; word-spacing: 0px; -webkit-text-stroke-width: 0px; white-space: normal; background-color: rgb(251, 251, 251); text-decoration-thickness: initial; text-decoration-style: initial; text-decoration-color: initial;&quot;&gt;&lt;span style=&quot;background-color: initial;&quot;&gt;new&amp;nbsp;&lt;/span&gt;&lt;span style=&quot;background-color: initial;&quot;&gt;()&lt;/span&gt;&lt;/div&gt;" style="shape=process;whiteSpace=wrap;html=1;backgroundOutline=1;fillColor=none;strokeColor=#b85450;" parent="RtweAaiOnxBnnprJ89-i-52" vertex="1">
          <mxGeometry x="60" y="135" width="165" height="35" as="geometry" />
        </mxCell>
        <mxCell id="RtweAaiOnxBnnprJ89-i-57" value="fn ()" style="swimlane;whiteSpace=wrap;html=1;" parent="RtweAaiOnxBnnprJ89-i-48" vertex="1">
          <mxGeometry x="40" y="290" width="235" height="200" as="geometry" />
        </mxCell>
        <mxCell id="RtweAaiOnxBnnprJ89-i-56" value="&lt;div style=&quot;forced-color-adjust: none; color: rgb(0, 0, 0); font-family: Helvetica; font-size: 12px; font-style: normal; font-variant-ligatures: normal; font-variant-caps: normal; font-weight: 400; letter-spacing: normal; orphans: 2; text-align: center; text-indent: 0px; text-transform: none; widows: 2; word-spacing: 0px; -webkit-text-stroke-width: 0px; white-space: normal; background-color: rgb(251, 251, 251); text-decoration-thickness: initial; text-decoration-style: initial; text-decoration-color: initial;&quot;&gt;create_epic_prompt ()&lt;/div&gt;&lt;div style=&quot;forced-color-adjust: none; color: rgb(0, 0, 0); font-family: Helvetica; font-size: 12px; font-style: normal; font-variant-ligatures: normal; font-variant-caps: normal; font-weight: 400; letter-spacing: normal; orphans: 2; text-align: center; text-indent: 0px; text-transform: none; widows: 2; word-spacing: 0px; -webkit-text-stroke-width: 0px; white-space: normal; background-color: rgb(251, 251, 251); text-decoration-thickness: initial; text-decoration-style: initial; text-decoration-color: initial;&quot;&gt;create_story_prompt ()&lt;/div&gt;&lt;div style=&quot;forced-color-adjust: none; color: rgb(0, 0, 0); font-family: Helvetica; font-size: 12px; font-style: normal; font-variant-ligatures: normal; font-variant-caps: normal; font-weight: 400; letter-spacing: normal; orphans: 2; text-align: center; text-indent: 0px; text-transform: none; widows: 2; word-spacing: 0px; -webkit-text-stroke-width: 0px; white-space: normal; background-color: rgb(251, 251, 251); text-decoration-thickness: initial; text-decoration-style: initial; text-decoration-color: initial;&quot;&gt;delete_epic_prompt ()&lt;/div&gt;&lt;div style=&quot;forced-color-adjust: none; color: rgb(0, 0, 0); font-family: Helvetica; font-size: 12px; font-style: normal; font-variant-ligatures: normal; font-variant-caps: normal; font-weight: 400; letter-spacing: normal; orphans: 2; text-align: center; text-indent: 0px; text-transform: none; widows: 2; word-spacing: 0px; -webkit-text-stroke-width: 0px; white-space: normal; background-color: rgb(251, 251, 251); text-decoration-thickness: initial; text-decoration-style: initial; text-decoration-color: initial;&quot;&gt;&lt;span style=&quot;background-color: initial;&quot;&gt;delete&lt;/span&gt;_story_prompt ()&lt;/div&gt;&lt;div style=&quot;forced-color-adjust: none; orphans: 2; text-align: center; text-indent: 0px; widows: 2; background-color: rgb(251, 251, 251); text-decoration-thickness: initial; text-decoration-style: initial; text-decoration-color: initial;&quot;&gt;update_status_prompt()&lt;/div&gt;&lt;div style=&quot;forced-color-adjust: none; color: rgb(0, 0, 0); font-family: Helvetica; font-size: 12px; font-style: normal; font-variant-ligatures: normal; font-variant-caps: normal; font-weight: 400; letter-spacing: normal; orphans: 2; text-align: center; text-indent: 0px; text-transform: none; widows: 2; word-spacing: 0px; -webkit-text-stroke-width: 0px; white-space: normal; background-color: rgb(251, 251, 251); text-decoration-thickness: initial; text-decoration-style: initial; text-decoration-color: initial;&quot;&gt;&lt;br&gt;&lt;/div&gt;" style="shape=process;whiteSpace=wrap;html=1;backgroundOutline=1;fillColor=none;strokeColor=#b85450;" parent="RtweAaiOnxBnnprJ89-i-57" vertex="1">
          <mxGeometry x="17.5" y="40" width="192.5" height="140" as="geometry" />
        </mxCell>
        <mxCell id="RtweAaiOnxBnnprJ89-i-19" value="models.rs" style="swimlane;whiteSpace=wrap;html=1;" parent="1" vertex="1">
          <mxGeometry x="453" y="-2119" width="90" height="80" as="geometry" />
        </mxCell>
        <mxCell id="RtweAaiOnxBnnprJ89-i-21" value="" style="shape=flexArrow;endArrow=classic;html=1;rounded=0;exitX=0.5;exitY=1;exitDx=0;exitDy=0;entryX=1;entryY=0;entryDx=0;entryDy=0;fontSize=8;strokeWidth=1;fillColor=#d5e8d4;startSize=6;width=5;strokeColor=#82b366;" parent="1" source="RtweAaiOnxBnnprJ89-i-19" target="RtweAaiOnxBnnprJ89-i-14" edge="1">
          <mxGeometry width="50" height="50" relative="1" as="geometry">
            <mxPoint x="406" y="-1462" as="sourcePoint" />
            <mxPoint x="456" y="-1512" as="targetPoint" />
          </mxGeometry>
        </mxCell>
        <mxCell id="RtweAaiOnxBnnprJ89-i-33" value="" style="shape=flexArrow;endArrow=classic;html=1;rounded=0;exitX=0;exitY=0;exitDx=0;exitDy=0;entryX=1;entryY=0;entryDx=0;entryDy=0;fontSize=8;strokeWidth=1;fillColor=#f8cecc;startSize=6;width=5;strokeColor=#b85450;" parent="1" source="RtweAaiOnxBnnprJ89-i-31" target="RtweAaiOnxBnnprJ89-i-12" edge="1">
          <mxGeometry width="50" height="50" relative="1" as="geometry">
            <mxPoint x="406" y="-1462" as="sourcePoint" />
            <mxPoint x="456" y="-1512" as="targetPoint" />
          </mxGeometry>
        </mxCell>
        <mxCell id="RtweAaiOnxBnnprJ89-i-40" value="" style="shape=flexArrow;endArrow=classic;html=1;rounded=0;exitX=0;exitY=0;exitDx=0;exitDy=0;entryX=1;entryY=0;entryDx=0;entryDy=0;fontSize=8;strokeWidth=1;fillColor=#f8cecc;startSize=6;width=5;strokeColor=#b85450;" parent="1" source="RtweAaiOnxBnnprJ89-i-34" target="RtweAaiOnxBnnprJ89-i-12" edge="1">
          <mxGeometry width="50" height="50" relative="1" as="geometry">
            <mxPoint x="629" y="-1641" as="sourcePoint" />
            <mxPoint x="246" y="-1522" as="targetPoint" />
          </mxGeometry>
        </mxCell>
        <mxCell id="RtweAaiOnxBnnprJ89-i-39" value="" style="shape=flexArrow;endArrow=classic;html=1;rounded=0;entryX=1;entryY=0;entryDx=0;entryDy=0;exitX=0;exitY=0;exitDx=0;exitDy=0;fontSize=8;strokeWidth=1;fillColor=#f8cecc;startSize=6;width=5;strokeColor=#b85450;" parent="1" source="RtweAaiOnxBnnprJ89-i-36" target="RtweAaiOnxBnnprJ89-i-12" edge="1">
          <mxGeometry width="50" height="50" relative="1" as="geometry">
            <mxPoint x="350.6300000000001" y="-1288.25" as="sourcePoint" />
            <mxPoint x="145.99749999999972" y="-1195.75" as="targetPoint" />
          </mxGeometry>
        </mxCell>
        <mxCell id="RtweAaiOnxBnnprJ89-i-38" value="" style="shape=flexArrow;endArrow=classic;html=1;rounded=0;exitX=0.5;exitY=1;exitDx=0;exitDy=0;entryX=0;entryY=0;entryDx=0;entryDy=0;fontSize=8;strokeWidth=1;fillColor=#d5e8d4;startSize=6;width=5;strokeColor=#82b366;" parent="1" source="RtweAaiOnxBnnprJ89-i-19" target="RtweAaiOnxBnnprJ89-i-25" edge="1">
          <mxGeometry width="50" height="50" relative="1" as="geometry">
            <mxPoint x="406" y="-1462" as="sourcePoint" />
            <mxPoint x="496" y="-1832" as="targetPoint" />
          </mxGeometry>
        </mxCell>
        <mxCell id="HwWQXn4arIi9w6ebfs8w-18" value="" style="shape=flexArrow;endArrow=classic;html=1;rounded=0;entryX=0;entryY=0;entryDx=0;entryDy=0;fontSize=8;strokeWidth=1;fillColor=#dae8fc;startSize=6;width=5;exitX=0.5;exitY=0;exitDx=0;exitDy=0;strokeColor=#6c8ebf;" parent="1" source="HwWQXn4arIi9w6ebfs8w-24" target="RtweAaiOnxBnnprJ89-i-31" edge="1">
          <mxGeometry width="50" height="50" relative="1" as="geometry">
            <mxPoint x="225" y="-1858" as="sourcePoint" />
            <mxPoint x="514" y="-1881" as="targetPoint" />
          </mxGeometry>
        </mxCell>
        <mxCell id="HwWQXn4arIi9w6ebfs8w-19" value="" style="shape=flexArrow;endArrow=classic;html=1;rounded=0;entryX=0;entryY=0;entryDx=0;entryDy=0;fontSize=8;strokeWidth=1;fillColor=#dae8fc;startSize=6;width=5;exitX=1;exitY=0.5;exitDx=0;exitDy=0;strokeColor=#6c8ebf;" parent="1" source="HwWQXn4arIi9w6ebfs8w-24" target="RtweAaiOnxBnnprJ89-i-34" edge="1">
          <mxGeometry width="50" height="50" relative="1" as="geometry">
            <mxPoint x="226" y="-1857" as="sourcePoint" />
            <mxPoint x="515" y="-1880" as="targetPoint" />
          </mxGeometry>
        </mxCell>
        <mxCell id="HwWQXn4arIi9w6ebfs8w-20" value="" style="shape=flexArrow;endArrow=classic;html=1;rounded=0;entryX=0;entryY=0;entryDx=0;entryDy=0;fontSize=8;strokeWidth=1;fillColor=#dae8fc;startSize=6;width=5;exitX=0.5;exitY=1;exitDx=0;exitDy=0;strokeColor=#6c8ebf;" parent="1" source="HwWQXn4arIi9w6ebfs8w-24" target="RtweAaiOnxBnnprJ89-i-36" edge="1">
          <mxGeometry width="50" height="50" relative="1" as="geometry">
            <mxPoint x="366" y="-1720" as="sourcePoint" />
            <mxPoint x="516" y="-1879" as="targetPoint" />
          </mxGeometry>
        </mxCell>
        <mxCell id="HwWQXn4arIi9w6ebfs8w-22" value="" style="shape=flexArrow;endArrow=classic;html=1;rounded=0;exitX=0.5;exitY=1;exitDx=0;exitDy=0;entryX=1;entryY=0;entryDx=0;entryDy=0;fontSize=8;strokeWidth=1;fillColor=#d5e8d4;startSize=6;width=5;strokeColor=#82b366;" parent="1" source="RtweAaiOnxBnnprJ89-i-19" target="RtweAaiOnxBnnprJ89-i-41" edge="1">
          <mxGeometry width="50" height="50" relative="1" as="geometry">
            <mxPoint x="394" y="-1579" as="sourcePoint" />
            <mxPoint x="378" y="-1309" as="targetPoint" />
          </mxGeometry>
        </mxCell>
        <mxCell id="HwWQXn4arIi9w6ebfs8w-27" value="" style="shape=flexArrow;endArrow=classic;html=1;rounded=0;exitX=0.5;exitY=1;exitDx=0;exitDy=0;entryX=0.003;entryY=0.026;entryDx=0;entryDy=0;fontSize=8;strokeWidth=1;fillColor=#dae8fc;startSize=6;width=5;entryPerimeter=0;strokeColor=#6c8ebf;" parent="1" source="HwWQXn4arIi9w6ebfs8w-25" target="RtweAaiOnxBnnprJ89-i-12" edge="1">
          <mxGeometry width="50" height="50" relative="1" as="geometry">
            <mxPoint x="349" y="-1659" as="sourcePoint" />
            <mxPoint x="258" y="-1848" as="targetPoint" />
          </mxGeometry>
        </mxCell>
        <mxCell id="HwWQXn4arIi9w6ebfs8w-30" value="" style="shape=flexArrow;endArrow=classic;html=1;rounded=0;exitX=1;exitY=1;exitDx=0;exitDy=0;entryX=0;entryY=0;entryDx=0;entryDy=0;fontSize=8;strokeWidth=1;fillColor=#dae8fc;startSize=6;width=5;strokeColor=#6c8ebf;" parent="1" source="HwWQXn4arIi9w6ebfs8w-29" target="RtweAaiOnxBnnprJ89-i-52" edge="1">
          <mxGeometry width="50" height="50" relative="1" as="geometry">
            <mxPoint x="47" y="-1884" as="sourcePoint" />
            <mxPoint x="111" y="-1531" as="targetPoint" />
          </mxGeometry>
        </mxCell>
        <mxCell id="HwWQXn4arIi9w6ebfs8w-33" value="main.rs" style="swimlane;whiteSpace=wrap;html=1;" parent="1" vertex="1">
          <mxGeometry x="677" y="-2167" width="430" height="401" as="geometry" />
        </mxCell>
        <mxCell id="HwWQXn4arIi9w6ebfs8w-37" value="let file_path;&lt;div style=&quot;font-size: 18px;&quot;&gt;let db = Rc::new(JIRA_DB);&lt;/div&gt;&lt;div style=&quot;font-size: 18px;&quot;&gt;let mut Nav = Nav::new( Rc::clone(&amp;amp;db))&lt;/div&gt;&lt;div style=&quot;font-size: 18px;&quot;&gt;loop {&lt;/div&gt;&lt;div style=&quot;font-size: 18px;&quot;&gt;&lt;span style=&quot;white-space: pre; font-size: 18px;&quot;&gt;&#x9;&lt;/span&gt;if get_current_page() != empty {&lt;br style=&quot;font-size: 18px;&quot;&gt;&lt;/div&gt;&lt;blockquote style=&quot;margin: 0px 0px 0px 40px; border: none; padding: 0px; font-size: 18px;&quot;&gt;&lt;div style=&quot;font-size: 18px;&quot;&gt;&lt;span style=&quot;white-space: pre; font-size: 18px;&quot;&gt;&#x9;&lt;/span&gt;draw_page()&amp;nbsp; // read_db&lt;/div&gt;&lt;div style=&quot;font-size: 18px;&quot;&gt;&lt;span style=&quot;white-space: pre; font-size: 18px;&quot;&gt;&#x9;&lt;/span&gt;user input;&lt;/div&gt;&lt;div style=&quot;font-size: 18px;&quot;&gt;&lt;span style=&quot;white-space: pre; font-size: 18px;&quot;&gt;&#x9;&lt;/span&gt;action;&lt;/div&gt;&lt;div style=&quot;font-size: 18px;&quot;&gt;&lt;span style=&quot;white-space: pre; font-size: 18px;&quot;&gt;&#x9;&lt;/span&gt;}&lt;/div&gt;&lt;/blockquote&gt;&lt;div style=&quot;font-size: 18px;&quot;&gt;&lt;span style=&quot;white-space: pre; font-size: 18px;&quot;&gt;&#x9;&lt;/span&gt;} else {&lt;/div&gt;&lt;div style=&quot;font-size: 18px;&quot;&gt;&lt;span style=&quot;white-space: pre; font-size: 18px;&quot;&gt;&#x9;&lt;/span&gt;&lt;span style=&quot;white-space: pre; font-size: 18px;&quot;&gt;&#x9;&lt;/span&gt;break;&lt;br style=&quot;font-size: 18px;&quot;&gt;&lt;/div&gt;&lt;div style=&quot;font-size: 18px;&quot;&gt;&lt;span style=&quot;white-space: pre; font-size: 18px;&quot;&gt;&#x9;&lt;/span&gt;}&lt;br style=&quot;font-size: 18px;&quot;&gt;&lt;/div&gt;&lt;div style=&quot;font-size: 18px;&quot;&gt;&lt;span style=&quot;white-space: pre; font-size: 18px;&quot;&gt;&#x9;&lt;/span&gt;&lt;br style=&quot;font-size: 18px;&quot;&gt;&lt;/div&gt;&lt;div style=&quot;font-size: 18px;&quot;&gt;&lt;br style=&quot;font-size: 18px;&quot;&gt;&lt;/div&gt;" style="rounded=0;whiteSpace=wrap;html=1;align=left;fontSize=18;strokeColor=default;" parent="HwWQXn4arIi9w6ebfs8w-33" vertex="1">
          <mxGeometry x="27" y="51" width="377" height="311" as="geometry" />
        </mxCell>
        <mxCell id="HwWQXn4arIi9w6ebfs8w-38" value="" style="shape=flexArrow;endArrow=classic;html=1;rounded=0;exitX=0.5;exitY=1;exitDx=0;exitDy=0;entryX=0;entryY=0;entryDx=0;entryDy=0;fontSize=8;strokeWidth=1;fillColor=#d5e8d4;startSize=6;width=5;strokeColor=#82b366;" parent="1" source="RtweAaiOnxBnnprJ89-i-19" target="HwWQXn4arIi9w6ebfs8w-33" edge="1">
          <mxGeometry width="50" height="50" relative="1" as="geometry">
            <mxPoint x="446" y="-2055" as="sourcePoint" />
            <mxPoint x="331" y="-2003" as="targetPoint" />
          </mxGeometry>
        </mxCell>
        <mxCell id="HwWQXn4arIi9w6ebfs8w-39" value="" style="shape=flexArrow;endArrow=classic;html=1;rounded=0;exitX=1;exitY=0;exitDx=0;exitDy=0;entryX=0;entryY=0;entryDx=0;entryDy=0;fontSize=8;strokeWidth=1;fillColor=#ffe6cc;startSize=6;width=5;strokeColor=#d79b00;" parent="1" source="RtweAaiOnxBnnprJ89-i-14" target="HwWQXn4arIi9w6ebfs8w-33" edge="1">
          <mxGeometry width="50" height="50" relative="1" as="geometry">
            <mxPoint x="433" y="-2108" as="sourcePoint" />
            <mxPoint x="614" y="-2154" as="targetPoint" />
          </mxGeometry>
        </mxCell>
        <mxCell id="HwWQXn4arIi9w6ebfs8w-41" value="" style="shape=flexArrow;endArrow=classic;html=1;rounded=0;exitX=0;exitY=0;exitDx=0;exitDy=0;entryX=0;entryY=0;entryDx=0;entryDy=0;fontSize=8;strokeWidth=1;fillColor=#e1d5e7;startSize=6;width=5;strokeColor=#9673a6;" parent="1" source="RtweAaiOnxBnnprJ89-i-54" target="HwWQXn4arIi9w6ebfs8w-33" edge="1">
          <mxGeometry width="50" height="50" relative="1" as="geometry">
            <mxPoint x="409" y="-1581" as="sourcePoint" />
            <mxPoint x="615" y="-2153" as="targetPoint" />
          </mxGeometry>
        </mxCell>
        <mxCell id="HwWQXn4arIi9w6ebfs8w-42" value="" style="shape=flexArrow;endArrow=classic;html=1;rounded=0;exitX=1;exitY=0;exitDx=0;exitDy=0;entryX=0;entryY=0;entryDx=0;entryDy=0;fontSize=8;strokeWidth=1;fillColor=#dae8fc;startSize=6;width=5;strokeColor=#6c8ebf;" parent="1" source="RtweAaiOnxBnnprJ89-i-41" target="HwWQXn4arIi9w6ebfs8w-33" edge="1">
          <mxGeometry width="50" height="50" relative="1" as="geometry">
            <mxPoint x="433" y="-2108" as="sourcePoint" />
            <mxPoint x="614" y="-2154" as="targetPoint" />
          </mxGeometry>
        </mxCell>
      </root>
    </mxGraphModel>
  </diagram>
</mxfile>
